<?xml version="1.0" encoding="UTF-8"?>
<svg width="20px" height="19px" viewBox="0 0 20 19" version="1.1" xmlns="http://www.w3.org/2000/svg" xmlns:xlink="http://www.w3.org/1999/xlink">
    <!-- Generator: sketchtool 52.4 (67378) - http://www.bohemiancoding.com/sketch -->
    <title>8BF2D54F-2613-44A1-A26A-D71110DDF065</title>
    <desc>Created with sketchtool.</desc>
    <defs>
        <path d="M2.5,19 L21.5,19 L21.5,21 L2.5,21 L2.5,19 Z M9.68,13.27 L14.03,14.43 L19.34,15.85 C20.14,16.06 20.96,15.59 21.18,14.79 C21.39,13.99 20.92,13.17 20.12,12.95 L14.81,11.53 L12.05,2.51 L10.12,2 L10.12,10.28 L5.15,8.95 L4.22,6.63 L2.77,6.24 L2.77,11.41 L4.37,11.84 L9.68,13.27 L9.68,13.27 Z" id="path-1"></path>
    </defs>
    <g id="Route-x-Airline-page" stroke="none" stroke-width="1" fill="none" fill-rule="evenodd">
        <g id="DES-408_Route-x-Airline-page" transform="translate(-740.000000, -1560.000000)">
            <g id="Route-information" transform="translate(142.000000, 1502.000000)">
                <g id="Group-4" transform="translate(596.000000, 56.000000)">
                    <g id="Icon/Action/ic_flight_takeoff-Copy">
                        <g id="ic_flight_land">
                            <polygon id="Bounds" points="0 0 24 0 24 24 0 24"></polygon>
                            <mask id="mask-2" fill="white">
                                <use xlink:href="#path-1"></use>
                            </mask>
                            <use id="Icon" fill="#50656E" xlink:href="#path-1"></use>
                        </g>
                    </g>
                </g>
            </g>
        </g>
    </g>
</svg>