<?xml version="1.0" encoding="UTF-8"?>
<svg width="22px" height="18px" viewBox="0 0 22 18" version="1.1" xmlns="http://www.w3.org/2000/svg" xmlns:xlink="http://www.w3.org/1999/xlink">
    <!-- Generator: sketchtool 52.4 (67378) - http://www.bohemiancoding.com/sketch -->
    <title>57F17374-EC4F-49DD-B008-051030E95432</title>
    <desc>Created with sketchtool.</desc>
    <defs>
        <path d="M2.5,19 L21.5,19 L21.5,21 L2.5,21 L2.5,19 Z M22.07,9.64 C21.86,8.84 21.03,8.36 20.23,8.58 L14.92,10 L8.02,3.57 L6.09,4.08 L10.23,11.25 L5.26,12.58 L3.29,11.04 L1.84,11.43 L3.66,14.59 L4.43,15.92 L6.03,15.49 L11.34,14.07 L15.69,12.91 L21,11.49 C21.81,11.26 22.28,10.44 22.07,9.64 L22.07,9.64 Z" id="path-1"></path>
    </defs>
    <g id="Route-x-Airline-page" stroke="none" stroke-width="1" fill="none" fill-rule="evenodd">
        <g id="DES-408_Route-x-Airline-page" transform="translate(-517.000000, -1561.000000)">
            <g id="Route-information" transform="translate(142.000000, 1502.000000)">
                <g id="Group-3" transform="translate(374.000000, 56.000000)">
                    <g id="Icon/Action/ic_flight_takeoff">
                        <g id="ic_flight_takeoff">
                            <polygon id="Bounds" points="0 0 24 0 24 24 0 24"></polygon>
                            <mask id="mask-2" fill="white">
                                <use xlink:href="#path-1"></use>
                            </mask>
                            <use id="Icon" fill="#50656E" xlink:href="#path-1"></use>
                        </g>
                    </g>
                </g>
            </g>
        </g>
    </g>
</svg>