<?xml version="1.0" encoding="UTF-8"?>
<svg width="20px" height="15px" viewBox="0 0 20 15" version="1.1" xmlns="http://www.w3.org/2000/svg" xmlns:xlink="http://www.w3.org/1999/xlink">
    <!-- Generator: sketchtool 52.4 (67378) - http://www.bohemiancoding.com/sketch -->
    <title>334C565F-A5A1-49E2-9E18-1F206259300B</title>
    <desc>Created with sketchtool.</desc>
    <defs>
        <path d="M19,18.1128 C18.337,18.1128 17.8,17.5758 17.8,16.9128 C17.8,16.2498 18.337,15.7128 19,15.7128 C19.663,15.7128 20.2,16.2498 20.2,16.9128 C20.2,17.5758 19.663,18.1128 19,18.1128 M19.969,14.0868 C21.147,14.4908 22,15.5968 22,16.9128 C22,18.5698 20.657,19.9128 19,19.9128 C17.343,19.9128 16,18.5698 16,16.9128 C16,15.6198 16.822,14.5268 17.97,14.1058 C17.909,13.3008 17.757,12.5178 17.517,11.7708 L19.42,11.1558 C19.723,12.0948 19.903,13.0778 19.969,14.0868 Z M7.1294,10.2539 L5.3704,9.3019 C6.6484,6.9409 8.6764,5.3739 10.9344,4.9999 L11.2604,6.9739 C9.6164,7.2449 8.1104,8.4409 7.1294,10.2539 Z M16.8744,10.2599 C15.8944,8.4459 14.3894,7.2489 12.7464,6.9749 L13.0754,5.0019 C15.3324,5.3789 17.3584,6.9489 18.6334,9.3099 L16.8744,10.2599 Z M6.03,14.1058 C7.177,14.5268 8,15.6198 8,16.9128 C8,18.5698 6.657,19.9128 5,19.9128 C3.343,19.9128 2,18.5698 2,16.9128 C2,15.5968 2.853,14.4908 4.031,14.0868 C4.097,13.0778 4.278,12.0938 4.581,11.1558 L6.484,11.7708 C6.243,12.5178 6.091,13.3008 6.03,14.1058 Z M5,18.1128 C5.663,18.1128 6.2,17.5758 6.2,16.9128 C6.2,16.2498 5.663,15.7128 5,15.7128 C4.337,15.7128 3.8,16.2498 3.8,16.9128 C3.8,17.5758 4.337,18.1128 5,18.1128 Z" id="path-1"></path>
    </defs>
    <g id="Route-x-Airline-page" stroke="none" stroke-width="1" fill="none" fill-rule="evenodd">
        <g id="DES-408_Route-x-Airline-page" transform="translate(-358.000000, -1563.000000)">
            <g id="Route-information" transform="translate(142.000000, 1502.000000)">
                <g id="Group-2" transform="translate(214.000000, 56.000000)">
                    <g id="Icon/Travel/ic_stops">
                        <g id="ic_stops">
                            <rect id="Bounds" x="0" y="0" width="24" height="24"></rect>
                            <mask id="mask-2" fill="white">
                                <use xlink:href="#path-1"></use>
                            </mask>
                            <use id="Icon" fill="#50656E" xlink:href="#path-1"></use>
                        </g>
                    </g>
                </g>
            </g>
        </g>
    </g>
</svg>