<?xml version="1.0" encoding="UTF-8"?>
<svg width="20px" height="20px" viewBox="0 0 20 20" version="1.1" xmlns="http://www.w3.org/2000/svg" xmlns:xlink="http://www.w3.org/1999/xlink">
    <!-- Generator: sketchtool 52.4 (67378) - http://www.bohemiancoding.com/sketch -->
    <title>7E92BE29-6C75-4B60-846D-31BE04C2EB26</title>
    <desc>Created with sketchtool.</desc>
    <defs>
        <path d="M11.99,2 C6.47,2 2,6.48 2,12 C2,17.52 6.47,22 11.99,22 C17.52,22 22,17.52 22,12 C22,6.48 17.52,2 11.99,2 L11.99,2 Z M12,20 C7.58,20 4,16.42 4,12 C4,7.58 7.58,4 12,4 C16.42,4 20,7.58 20,12 C20,16.42 16.42,20 12,20 Z M12.5,7 L11,7 L11,13 L16.25,16.15 L17,14.92 L12.5,12.25 L12.5,7 Z" id="path-1"></path>
    </defs>
    <g id="Route-x-Airline-page" stroke="none" stroke-width="1" fill="none" fill-rule="evenodd">
        <g id="DES-408_Route-x-Airline-page" transform="translate(-144.000000, -1560.000000)">
            <g id="Route-information" transform="translate(142.000000, 1502.000000)">
                <g id="Group-1" transform="translate(0.000000, 56.000000)">
                    <g id="Icon/Action/ic_schedule">
                        <g id="ic_schedule">
                            <polygon id="Bounds" points="0 0 24 0 24 24 0 24"></polygon>
                            <mask id="mask-2" fill="white">
                                <use xlink:href="#path-1"></use>
                            </mask>
                            <use id="Icon" fill="#50656E" xlink:href="#path-1"></use>
                        </g>
                    </g>
                </g>
            </g>
        </g>
    </g>
</svg>